<svg width="208" height="73" viewBox="0 0 208 73" fill="none" xmlns="http://www.w3.org/2000/svg">
<path d="M48.808 7.46859H47.2997V0H54.8338V1.49153H48.808V7.46859Z" fill="#11110F"/>
<path d="M66.135 0V1.49153H61.6175V0H66.135ZM66.135 1.49153H67.6433V7.46859H66.135V5.97341H61.6175V7.46859H60.1092V1.49153H61.6175V4.47823H66.135V1.49153Z" fill="#11110F"/>
<path d="M80.4529 7.46859H74.427V5.97341H80.4529V7.46859ZM72.9187 1.49153H74.427V5.97341H72.9187V1.49153ZM80.4529 0V1.49153H74.427V0H80.4529Z" fill="#11110F"/>
<path d="M85.7282 0H93.2624V1.49153H90.2494V7.46859H88.7411V1.49153H85.7282V0Z" fill="#11110F"/>
<path d="M100.046 1.49153V2.98671H104.564V4.47823H100.046V7.46859H98.5377V0H104.564V1.49153H100.046ZM104.564 1.49153H106.072V2.98671H104.564V1.49153Z" fill="#11110F"/>
<path d="M111.347 1.49153H112.856V5.97341H111.347V1.49153ZM117.373 0V1.49153H112.856V0H117.373ZM112.856 7.46859V5.97341H117.373V7.46859H112.856ZM117.373 1.49153H118.881V5.97341H117.373V1.49153Z" fill="#11110F"/>
<path d="M131.691 5.97341H130.183V4.48188H131.691V5.97341ZM130.183 5.97341V7.46859H124.157V0H130.183V1.49153H125.665V2.98671H130.183V4.48188H125.665V5.97341H130.183Z" fill="#11110F"/>
<path d="M142.992 0V1.49153H138.475V0H142.992ZM142.992 1.49153H144.5V7.46859H142.992V5.97341H138.475V7.46859H136.966V1.49153H138.475V4.47823H142.992V1.49153Z" fill="#11110F"/>
<path d="M151.284 1.49153V2.98671H155.802V4.47823H151.284V7.46859H149.776V0H155.802V1.49153H151.284ZM155.802 1.49153H157.31V2.98671H155.802V1.49153Z" fill="#11110F"/>
<path d="M202.766 44.5988C202.418 44.7862 201.996 45.0265 201.623 45.2138C201.536 45.2546 201.396 45.3224 201.325 45.2383C201.301 45.2057 201.287 45.1487 201.29 45.0754C202.66 38.6728 204.395 31.3403 205.78 25.2405C205.824 25.0735 205.88 24.7993 205.89 24.6921C205.892 24.6038 205.873 24.5767 205.808 24.5631C205.025 24.407 199.666 23.3467 195.872 22.5959C194.243 22.2809 193.117 22.0447 192.355 21.8994C192.152 21.8764 192.103 21.7868 191.96 21.947C187.408 25.9126 182.764 29.7818 178.178 33.7107C177.906 33.9361 177.555 33.9483 177.204 33.9483C175.886 33.951 174.564 34.0922 173.308 34.3705C173.148 34.3977 172.806 34.509 172.68 34.4723C172.651 34.4574 172.651 34.4235 172.654 34.3936C172.685 34.1316 172.773 33.4039 172.891 32.4318C173.278 29.2306 173.99 23.3684 174.072 22.6733C174.079 22.581 174.052 22.5755 173.942 22.5185C173.455 22.323 172.248 21.7922 171.637 21.5465C171.311 21.3835 171.098 21.4596 170.798 21.5655C169.121 22.1031 166.001 22.1411 163.621 22.1777C163.389 22.1642 163.198 22.1954 163.168 21.9646C162.883 20.8649 162.074 16.4364 161.696 14.8683C160.229 14.8385 135.067 14.8412 126.649 14.8452C126.22 16.4975 125.737 18.2013 125.281 19.8671C125.178 20.2608 124.853 20.2255 124.441 20.2133C112.352 19.3376 106.8 31.8291 107.273 42.8855C107.279 42.9072 107.283 42.9072 107.287 42.8882C107.29 42.8747 107.291 42.8516 107.292 42.8217C107.305 42.4769 107.168 41.8429 106.942 41.065C106.088 38.233 104.31 33.7012 103.788 32.4169C103.738 32.3694 103.655 32.3531 103.503 32.3531C103.14 32.3626 102.26 32.4264 101.778 32.4481C101.404 32.4685 101.319 32.383 101.303 32.0924C101.235 30.5801 101.175 29.065 101.11 27.5539C101.045 26.0388 100.741 20.9287 100.576 17.9203C100.514 16.9618 100.506 16.3685 100.469 16.2042C99.7237 16.1825 88.1351 16.9401 85.3873 17.0758C85.2447 17.0785 85.1226 17.0948 84.9895 17.0989C84.7791 17.1193 84.8184 17.0568 84.7383 17.3677C84.3324 18.9643 83.8369 20.9192 83.4092 22.604C83.1893 23.4648 82.9829 24.2848 82.7698 25.1197C82.6843 25.4306 82.744 25.4021 82.4317 25.4211C81.2561 25.4903 80.0708 25.5596 78.8707 25.6315C77.8308 25.6818 76.3415 25.789 75.5011 25.8311C75.3097 25.823 75.1888 25.9017 75.0762 25.7551C75.0314 25.6886 74.9798 25.5664 74.9458 25.4768C74.6634 24.8523 74.4652 24.1544 74.1313 23.5598C74.043 23.4688 73.8977 23.4458 73.7688 23.4376C73.2977 23.4173 72.3039 23.4023 71.8315 23.3833C71.6427 23.3792 71.4391 23.3412 71.3495 23.1647C70.6177 21.5668 69.8941 19.9404 69.2045 18.3235C69.1773 18.2692 69.1719 18.2298 69.1203 18.2135C69.0456 18.2094 68.8854 18.2067 68.6519 18.2013C63.3341 18.0723 45.4651 17.5849 44.1713 17.5944C44.079 18.5746 44.1007 21.1935 44.0423 22.1302C44.0749 22.509 43.9147 22.7059 43.5373 22.6638C42.758 22.6448 39.7699 22.566 39.125 22.5525C39.0449 22.5538 38.9784 22.5525 38.9472 22.6258C38.9282 22.676 38.9241 22.7642 38.92 22.8973C38.9146 23.1172 38.9051 23.4634 38.8956 23.8408C38.8847 24.2929 38.8712 24.7898 38.8617 25.1632C38.8522 25.4781 38.8589 25.6994 38.787 25.7103C38.7096 25.713 38.6675 25.6492 38.5711 25.5623C37.0777 23.9481 35.5816 22.3122 34.091 20.6925C30.4091 15.896 21.5018 13.6465 15.2119 17.031C15.1603 17.0446 15.1318 17.0459 15.0857 17.0446C14.8562 17.0473 14.0593 17.0717 12.942 17.1016C9.28184 17.2061 3.38434 17.3596 0.0391624 17.4573C0.00250671 17.4573 -0.00292377 17.4872 0.00114909 17.5198C0.283534 20.049 1.11711 27.9558 1.26102 29.1641C1.31261 29.2876 1.4185 29.293 1.56513 29.3867C2.9051 30.2271 4.21249 31.1543 5.55789 31.9811C5.70179 32.0544 5.66107 32.0911 5.6855 32.2323C5.69772 32.3395 5.71537 32.4862 5.73709 32.6681C6.29236 37.6695 8.04233 51.8784 8.14415 52.9767C8.14415 52.9971 8.14415 53.0107 8.12515 53.0202C8.09256 53.0392 7.98531 53.05 7.75316 53.0785C6.88021 53.1871 4.60076 53.4709 3.74682 53.5768C3.4305 53.6148 3.4943 53.6161 3.51195 53.8483C3.70338 55.8236 4.63742 63.1059 4.73245 64.1309C4.75418 64.23 4.85057 64.2477 5.04335 64.2938C5.7208 64.4961 6.38739 64.731 7.05941 64.9468C14.3485 67.3417 21.666 69.7039 28.9402 72.1205C32.5528 71.0846 42.6277 68.1698 44.5962 67.601C44.6519 67.5765 44.6343 67.5413 44.6343 67.4788C44.5854 67.0416 44.1957 63.8485 44.0491 62.6212C43.9948 62.366 44.0546 62.2072 43.8672 62.07C43.0934 61.6315 42.31 61.1781 41.5375 60.7314C41.0393 60.4491 41.6231 60.4776 41.9448 60.4721C45.1637 60.5047 47.6753 59.5204 49.6683 57.8954C49.8828 57.7392 50.0932 57.6972 50.3077 57.8465C52.8424 59.6861 55.407 61.5066 57.924 63.3679C58.1304 63.5539 58.258 63.4548 58.6761 63.4901C63.4196 63.6177 75.8079 63.9218 76.9035 63.9544C76.9252 63.9544 76.9388 63.9517 76.9483 63.9368C76.9673 63.9096 76.97 63.8322 76.9755 63.6517C76.9918 63.0448 77.0366 61.2786 77.0529 60.6201C77.0596 60.4137 77.0257 60.1504 77.2904 60.1314C77.7439 60.0961 78.2991 60.1069 78.7621 60.1626C79.1626 60.2726 79.2101 60.7966 79.4233 61.0885C81.2954 63.8336 83.2002 66.5583 85.0818 69.298C85.2162 69.4677 85.2393 69.5967 85.3968 69.632C89.2144 69.4188 99.8717 68.7713 101.065 68.7088C101.126 68.7034 101.145 68.7034 101.145 68.6206C101.077 67.2942 100.947 65.1016 100.866 63.6177C100.841 63.1494 100.817 62.8113 100.817 62.6864C100.817 62.6294 100.837 62.5995 100.893 62.5873C101.022 62.5669 101.451 62.5506 102.045 62.514C103.23 62.4475 105.342 62.3171 106.291 62.2628C106.778 62.2452 106.831 62.2397 106.85 61.8012C106.96 60.4395 107.071 59.0724 107.181 57.7107C107.193 57.6822 107.188 57.4433 107.25 57.5112C109.892 67.8101 122.754 71.7268 128.689 62.7516C130.71 60.0404 132.635 57.2206 134.684 54.5475C135.031 55.5711 135.371 67.5236 135.684 68.6531C136.594 68.7373 141.218 68.6382 142.904 68.6749C143.049 68.6749 143.168 68.6762 143.249 68.6735C143.43 68.6708 143.521 68.5581 143.659 68.4481C144.43 67.8549 145.222 67.2602 145.998 66.6683C146.069 66.6154 146.156 66.5556 146.239 66.5638C146.329 66.5692 146.411 66.6547 146.501 66.7891C148.925 70.733 157.776 70.843 162.169 68.5486C162.867 68.2133 163.558 67.8576 164.243 67.4965C165.017 67.0892 165.788 66.6724 166.565 66.2732C166.675 66.2189 166.804 66.1606 166.916 66.1524C167.183 66.1239 167.305 66.4307 167.383 66.6493C168.884 70.3882 173.911 70.7384 177.204 69.298C184.874 66.2488 193.819 60.0458 201.549 57.1392C202.282 56.8269 202.991 56.4061 203.567 55.9268C206.564 53.4804 207.401 49.1211 207.987 44.9437C208.012 44.7305 208.007 44.6002 207.919 44.5554C207.22 44.4767 205.139 44.5513 203.812 44.5255C203.512 44.5418 202.991 44.478 202.779 44.5893L202.768 44.5948L202.766 44.5988ZM40.966 60.4504L40.9632 60.4328C40.9958 60.4355 41.0271 60.4368 41.0583 60.4395L40.9646 60.4518L40.966 60.4504Z" fill="#11110F"/>
<path fill-rule="evenodd" clip-rule="evenodd" d="M161.636 21.1174H149.364L156.3 54.7295H148.83L141.894 21.1174H130.422L128.661 16.4719H160.675L161.636 21.1174ZM105.928 42.0002L102.969 34.0078L84.335 35.1076L83.877 26.9676L99.7595 26.0301L99.3016 17.8901L85.9828 18.6762L83.877 26.9676L75.9983 27.4327L77.3721 51.8527L80.3276 59.781L98.8989 58.6849L98.4446 50.6089L106.386 50.1402L105.928 42.0002ZM98.4446 50.6089L85.2508 51.3877L84.7929 43.2477L97.9866 42.4689L98.4446 50.6089ZM188.484 46.0591C188.106 49.2993 186.497 51.8407 183.721 53.7467C180.945 55.6528 177.39 56.5423 173.12 56.5424C168.657 56.5424 165.483 55.4624 163.536 53.3023C161.589 51.1422 160.931 47.8384 161.435 43.391L163.517 26.2369L158.601 26.2369L158.917 23.8226C162.41 23.8226 165.256 23.8226 167.326 23.6955C169.396 23.5684 170.689 23.3777 171.335 23.1236L172.695 23.6954L171.118 36.7198C172.023 36.3386 172.992 36.0845 174.156 35.8939C175.32 35.7032 176.484 35.5762 177.648 35.5761C181.142 35.5761 183.862 36.5926 185.938 38.4986C188.014 40.4046 188.863 42.9459 188.484 46.0591ZM197.703 56.5624C194.856 56.5625 192.784 55.8001 191.615 54.2753C190.446 52.7505 190.05 50.3362 190.428 47.1595L193.267 23.7155L204.366 25.9123C204.366 25.9123 199.23 48.2395 199.04 49.5737C198.85 50.9079 198.853 51.8609 199.113 52.4327C199.374 53.068 199.828 53.3222 200.539 53.3222C201.445 53.3222 202.155 52.7503 202.733 51.5432C203.312 50.3996 203.759 48.5571 204.075 46.1428L206.533 46.1428C205.899 50.2089 204.937 53.0044 203.648 54.4022C202.294 55.8635 200.29 56.5624 197.703 56.5624ZM173.822 53.4927C175.31 53.4927 176.602 52.7938 177.633 51.3961C178.663 49.9983 179.305 48.1558 179.556 45.7415C179.807 43.3272 179.478 41.5483 178.698 40.3412C177.853 39.134 176.493 38.4987 174.682 38.4987C174.035 38.4988 173.388 38.6258 172.742 38.7529C172.095 38.9435 171.449 39.1977 170.803 39.5153L170.108 44.7887C169.73 48.0289 169.802 50.3161 170.388 51.5868C170.974 52.8574 172.14 53.4928 173.822 53.4927ZM36.8879 30.5284C35.8981 22.1805 28.7839 16.0551 20.4093 17.0969C18.1611 17.3766 16.1072 18.3332 14.2067 19.6212L14.0974 18.7001L1.62753 19.0427L2.59756 28.0175L6.58816 27.5211L9.78289 54.4646L5.11783 55.045L6.03256 62.7596L24.2417 57.5044L23.6657 52.7375L18.2137 53.4158L17.456 47.0253C19.4762 47.7087 21.6104 47.9106 24.0273 47.6099C32.6267 46.5401 37.8846 38.9339 36.8879 30.5284ZM28.5201 31.6279C29.0321 35.9457 26.2532 39.4462 22.4875 39.9147C20.0144 40.2223 17.7216 39.1639 16.316 37.4109L15.3398 29.1781C16.4787 26.758 18.4082 25.2327 20.7126 24.946C24.5346 24.4705 27.9604 26.907 28.5201 31.6279ZM40.3742 24.2038L39.806 46.5077L43.3103 46.597C44.0487 46.6158 44.3873 46.7979 44.5526 46.9719C44.718 47.1459 44.8827 47.4933 44.8639 48.2318L44.7746 51.736L67.0785 52.3043L67.1678 48.8C67.1866 48.0616 67.3687 47.723 67.5427 47.5576C67.7168 47.3923 68.0641 47.2276 68.8026 47.2464L72.3068 47.3357L72.8751 25.0318L69.3708 24.9425C68.6324 24.9237 68.2938 24.7415 68.1284 24.5675C67.9631 24.3935 67.7984 24.0461 67.8172 23.3077L67.9065 19.8034L45.6026 19.2352L45.5133 22.7395C45.4945 23.4779 45.3124 23.8165 45.1383 23.9818C44.9643 24.1472 44.6169 24.3119 43.8785 24.2931L40.3742 24.2038ZM48.4574 44.8168C47.7189 44.798 47.3804 44.6159 47.215 44.4418C47.0497 44.2678 46.885 43.9204 46.9038 43.182L47.2934 27.8866C47.3123 27.1481 47.4944 26.8096 47.6684 26.6442C47.8424 26.4788 48.1898 26.3142 48.9283 26.333L64.2237 26.7226C64.9621 26.7415 65.3007 26.9236 65.4661 27.0976C65.6314 27.2716 65.7961 27.619 65.7773 28.3575L65.3876 43.6529C65.3688 44.3913 65.1867 44.7299 65.0126 44.8953C64.8386 45.0606 64.4912 45.2253 63.7528 45.2065L48.4574 44.8168ZM118.655 56.1158C120.512 56.9917 122.499 57.4297 124.617 57.4297C126.702 57.4297 128.624 56.9593 130.383 56.0184C132.175 55.0776 133.706 53.7799 134.977 52.1254C136.28 50.4708 137.274 48.5405 137.958 46.3345C138.675 44.0959 138.984 41.6952 138.886 39.1323C138.789 36.6991 138.316 34.4282 137.469 32.3195C136.622 30.2107 135.498 28.3777 134.097 26.8205C132.729 25.2633 131.116 24.0467 129.259 23.1708C127.402 22.2624 125.431 21.8082 123.346 21.8082C121.261 21.8082 119.323 22.2786 117.531 23.2194C115.772 24.1603 114.241 25.4579 112.938 27.1125C111.667 28.767 110.674 30.7136 109.957 32.9521C109.273 35.1581 108.979 37.5426 109.077 40.1056C109.175 42.5387 109.647 44.8097 110.494 46.9184C111.341 49.0271 112.449 50.8601 113.817 52.4174C115.218 53.9746 116.831 55.2074 118.655 56.1158ZM121.294 52.0767C120.089 49.7733 119.111 45.9938 118.362 40.7382C117.58 35.1581 117.466 31.038 118.02 28.3777C118.574 25.7175 119.844 24.2738 121.832 24.0467C123.819 23.7872 125.431 24.8253 126.669 27.1612C127.907 29.4645 128.885 33.2441 129.602 38.4997C130.383 44.0797 130.497 48.1999 129.944 50.8601C129.39 53.4879 128.119 54.9316 126.132 55.1912C124.145 55.4182 122.532 54.3801 121.294 52.0767Z" fill="#D45135"/>
</svg>
